<?xml version="1.0" standalone="no"?>
<!DOCTYPE svg PUBLIC "-//W3C//DTD SVG 20010904//EN"
 "http://www.w3.org/TR/2001/REC-SVG-20010904/DTD/svg10.dtd">
<svg version="1.0" xmlns="http://www.w3.org/2000/svg"
 width="1024.000000pt" height="1024.000000pt" viewBox="0 0 1024.000000 1024.000000"
 preserveAspectRatio="xMidYMid meet">
<metadata>
Created by potrace 1.14, written by Peter Selinger 2001-2017
</metadata>
<g transform="translate(0.000000,1024.000000) scale(0.100000,-0.100000)"
fill="#000000" stroke="none">
<path d="M3050 8610 c-135 -36 -234 -93 -330 -190 -218 -218 -271 -514 -149
-831 92 -238 354 -505 622 -633 141 -68 551 -205 691 -231 l38 -8 -6 -61 c-24
-222 -79 -447 -138 -558 -52 -99 -162 -214 -258 -271 -73 -42 -195 -84 -273
-93 l-52 -6 -93 186 c-148 295 -381 628 -552 790 -93 87 -198 156 -286 186
-93 31 -262 39 -355 16 -246 -62 -420 -272 -436 -526 -19 -306 198 -549 645
-724 206 -81 599 -181 812 -207 141 -17 342 -6 464 25 175 45 340 140 466 268
164 166 251 372 314 748 13 78 26 143 28 145 8 8 484 -115 560 -144 l28 -11
-65 -80 c-229 -283 -253 -606 -67 -882 104 -154 299 -366 385 -418 41 -25 112
-26 152 -2 52 32 201 179 279 275 145 180 204 296 227 444 29 193 -45 419
-197 598 l-55 65 28 11 c76 29 553 152 561 144 2 -2 14 -66 27 -142 45 -266
97 -437 169 -561 174 -297 474 -472 836 -489 207 -10 430 25 756 118 395 112
644 239 791 404 211 237 202 568 -22 791 -115 114 -240 164 -413 164 -290 0
-507 -163 -814 -615 -100 -147 -175 -276 -254 -440 -76 -155 -66 -149 -199
-115 -209 53 -372 185 -469 378 -45 89 -103 338 -122 524 l-6 64 58 13 c174
39 563 170 685 231 164 83 375 259 478 399 107 146 172 306 190 466 38 348
-164 664 -494 772 -105 34 -294 43 -399 19 -251 -59 -473 -223 -589 -436 -118
-215 -227 -764 -227 -1147 l0 -112 -52 -15 c-29 -9 -105 -27 -168 -41 -197
-45 -460 -124 -645 -196 -27 -10 -54 -3 -255 64 -124 42 -310 97 -415 122
-104 25 -206 50 -226 55 l-36 10 -6 182 c-13 390 -104 841 -213 1059 -95 191
-290 353 -514 430 -85 29 -109 33 -230 36 -111 2 -148 -1 -210 -17z m318 -265
c111 -26 235 -106 316 -203 51 -61 128 -223 160 -337 30 -107 70 -322 85 -457
12 -103 15 -348 5 -348 -16 0 -340 93 -405 116 -356 126 -605 334 -706 590
-25 62 -27 81 -28 199 0 129 0 131 34 200 95 192 318 292 539 240z m3727 0
c146 -31 259 -117 318 -242 31 -66 32 -72 31 -198 0 -115 -3 -138 -26 -197
-37 -97 -83 -170 -163 -256 -177 -191 -411 -309 -845 -426 -53 -14 -99 -26
-103 -26 -10 0 -8 242 3 345 16 142 60 371 92 480 71 239 185 392 356 477 115
57 212 69 337 43z m-4893 -1733 c116 -57 290 -244 453 -487 112 -168 224 -375
202 -375 -27 0 -210 40 -342 75 -238 62 -403 130 -547 224 -92 60 -146 112
-184 177 -25 41 -29 60 -29 119 0 123 72 232 179 275 70 28 201 24 268 -8z
m6124 0 c99 -51 159 -151 159 -267 0 -59 -4 -78 -29 -119 -74 -127 -264 -249
-525 -340 -172 -60 -561 -151 -561 -131 0 15 151 277 208 362 188 278 374 469
496 509 62 21 201 13 252 -14z m-3142 -282 c149 -95 260 -311 243 -474 -9 -94
-101 -240 -246 -396 l-61 -65 -61 65 c-137 147 -236 303 -246 387 -14 124 50
299 148 402 52 55 133 111 159 111 9 0 38 -14 64 -30z"/>
<path d="M4228 5604 c-26 -11 -48 -33 -77 -77 -52 -80 -128 -157 -214 -217
-215 -151 -577 -212 -943 -159 -74 11 -85 10 -120 -7 -21 -10 -49 -35 -62 -54
-29 -42 -29 -44 22 -375 32 -207 52 -367 71 -567 6 -59 4 -68 -10 -68 -58 0
-562 -216 -711 -305 -276 -164 -497 -379 -597 -580 -54 -109 -68 -167 -74
-305 -4 -105 -2 -139 16 -214 38 -159 137 -316 254 -403 76 -56 198 -115 292
-139 104 -27 296 -25 397 4 255 72 419 215 552 480 72 143 118 317 151 574 17
135 38 508 33 606 l-3 67 135 3 c95 2 159 -2 215 -13 182 -37 370 -113 514
-209 72 -48 211 -171 211 -187 0 -5 -34 -49 -76 -97 -296 -341 -519 -722 -570
-972 -71 -357 129 -725 425 -780 222 -41 480 58 639 244 157 185 222 502 177
853 -42 322 -132 590 -265 789 -70 105 -271 303 -385 380 -270 183 -565 275
-887 275 l-147 0 -5 32 c-3 18 -10 82 -16 142 -6 61 -24 203 -40 317 -17 114
-30 210 -30 214 0 3 39 3 88 -1 96 -7 301 8 426 31 330 63 602 231 761 472 39
59 48 81 48 116 0 97 -105 167 -195 130z m-1311 -2036 c-10 -411 -52 -648
-147 -841 -76 -151 -185 -261 -308 -308 -79 -30 -224 -37 -312 -15 -133 34
-225 96 -290 198 -55 84 -74 164 -67 284 6 121 16 155 69 236 50 74 219 247
300 306 83 61 285 173 418 234 92 42 321 135 339 137 2 1 1 -104 -2 -231z
m1564 -449 c38 -91 93 -305 110 -419 17 -121 15 -339 -5 -429 -47 -223 -205
-377 -398 -388 -66 -4 -78 -2 -128 24 -64 33 -108 97 -140 202 -53 169 5 366
201 679 109 176 306 427 322 412 4 -4 22 -40 38 -81z"/>
<path d="M5915 5605 c-72 -25 -114 -98 -95 -164 14 -49 105 -173 183 -248 229
-221 548 -333 959 -336 98 -1 178 -3 178 -5 0 -1 -13 -96 -30 -210 -16 -114
-34 -256 -40 -317 -6 -60 -13 -124 -16 -142 l-5 -32 -147 0 c-320 0 -619 -93
-887 -275 -123 -83 -317 -277 -390 -389 -132 -204 -218 -464 -260 -780 -54
-417 43 -757 271 -947 143 -119 372 -182 545 -150 296 55 497 424 425 780 -53
258 -264 618 -570 972 -42 48 -76 92 -76 97 0 16 135 136 205 183 146 96 342
177 517 212 82 17 323 22 346 7 10 -6 12 -23 7 -67 -8 -74 11 -448 30 -602 43
-336 104 -522 233 -717 223 -335 652 -456 1017 -285 153 71 254 166 329 310
59 112 77 183 83 315 12 258 -68 445 -279 657 -238 238 -507 394 -983 569
l-130 48 3 58 c4 103 32 333 68 568 51 331 51 333 22 375 -13 19 -41 44 -62
54 -35 17 -46 18 -120 7 -132 -19 -313 -24 -426 -12 -344 37 -580 162 -724
381 -35 52 -54 71 -86 84 -48 19 -44 19 -95 1z m1665 -1906 c137 -58 330 -161
442 -235 190 -126 368 -323 408 -450 38 -123 22 -287 -37 -397 -56 -102 -188
-192 -320 -217 -76 -15 -209 -8 -279 14 -163 51 -304 222 -383 463 -56 172
-91 465 -91 770 l0 152 83 -30 c45 -17 125 -48 177 -70z m-1652 -638 c71 -87
208 -294 270 -406 110 -201 147 -320 139 -445 -10 -147 -70 -260 -162 -306
-49 -23 -64 -26 -124 -22 -128 9 -272 102 -334 215 -68 128 -94 298 -76 508
16 186 82 452 141 568 l19 39 37 -43 c20 -23 61 -72 90 -108z"/>
</g>
</svg>
