<svg width="440" height="440" viewBox="0 0 440 440" fill="none" xmlns="http://www.w3.org/2000/svg">
<circle cx="220" cy="220" r="220" fill="url(#paint0_linear)"/>
<path d="M137.707 284.6C137.707 284.6 128.84 265.291 117.149 261.073C105.458 256.856 115.021 240.602 110.499 223.597C107.031 210.556 116.92 199.55 108.854 188.429C102.688 179.927 98.2949 174.13 98.009 161.763C97.723 149.396 104.333 154.806 107.875 142.439C111.245 130.675 135.595 142.864 124.521 116.16C120.898 107.424 154.172 112.226 162.208 112.226C165 112.226 157.263 99.5514 155.17 86.4399C152.881 72.1085 178.384 98.8801 193.811 98.9586C200.819 98.9942 211.251 94.3317 218.065 95.8669C231.788 98.9586 233.541 98.9586 240.832 97.4127C248.124 95.8669 250.723 87.2533 247.821 69.9737C246.587 62.6308 263.031 77.9929 276.596 80.0218C294.684 82.7271 285.64 104.369 300.419 112.226C320.154 122.719 324.815 121.311 325.906 131.232C327.14 142.439 338.723 153.264 341.939 166.014C346.461 183.942 334.831 197.479 338.65 213.935C341.572 226.528 329.195 234.032 330.839 250.263C332.484 266.495 314.531 275.577 304.941 280.085M137.707 284.6C134.347 269.822 137.361 235.622 137.707 223.597C138.066 211.138 141.086 169.909 161.884 166.014C182.682 162.119 198.534 149.489 224.302 149.489C250.069 149.489 264.853 163.088 285.129 166.014C305.405 168.94 309.207 191.332 309.207 225.672C309.207 250.263 304.941 280.085 304.941 280.085M137.707 284.6C139.819 293.889 151.071 311.174 161.884 328.716C174.912 349.851 189.8 372 223.136 372C256.471 372 263.833 353.45 276.988 333.353C290.142 313.257 298.194 301.092 304.941 280.085" stroke="white" stroke-width="13"/>
<path d="M222.442 245.239C222.442 245.239 222.442 249.481 222.442 254.194C222.442 261.263 227.904 263.149 228.45 273.046C229.048 283.886 220.258 283.886 220.258 283.886" stroke="white" stroke-width="10" stroke-linecap="round"/>
<defs>
<linearGradient id="paint0_linear" x1="0" y1="0" x2="440" y2="440" gradientUnits="userSpaceOnUse">
<stop stop-color="#41A0FF"/>
<stop offset="1" stop-color="#075DC2"/>
</linearGradient>
</defs>
</svg>
